/* XPM */
static char *bb3389d5074748f9ec0b8b78956bf33bHi71y32qUx9csAIe[] = {
/* columns rows colors chars-per-pixel */
"24 24 169 2 ",
"   c #3E2E1F",
".  c #312D22",
"X  c #3B2D22",
"o  c #4C2613",
"O  c #452A1F",
"+  c #4D311C",
"@  c #412F25",
"#  c #4E2E22",
"$  c #4A2628",
"%  c #432F2E",
"&  c #4C2D2A",
"*  c #41322D",
"=  c #4E3028",
"-  c #5A4238",
";  c #5B493D",
":  c #684434",
">  c #65423C",
",  c #6C473E",
"<  c #65493E",
"1  c #684B3B",
"2  c #5D4F46",
"3  c #5F4D49",
"4  c #5A5F5B",
"5  c #644341",
"6  c #6B4343",
"7  c #624B44",
"8  c #684D42",
"9  c #6D564E",
"0  c #6D5D4D",
"q  c #79584F",
"w  c #635F56",
"e  c #6E5D56",
"r  c #695F5D",
"t  c #725C52",
"y  c #755B5B",
"u  c #7D5F5D",
"i  c #566256",
"p  c #5F6355",
"a  c #55635B",
"s  c #5B655C",
"d  c #656157",
"f  c #6A6351",
"g  c #64635A",
"h  c #6C645D",
"j  c #736154",
"k  c #7F6156",
"l  c #73615B",
"z  c #7E6159",
"x  c #70685D",
"c  c #5E6562",
"v  c #576D61",
"b  c #5E6A62",
"n  c #636562",
"m  c #6A6561",
"M  c #616E65",
"N  c #736161",
"B  c #726B63",
"V  c #7C6A62",
"C  c #6A776D",
"Z  c #6A796D",
"A  c #757367",
"S  c #747867",
"D  c #74746D",
"F  c #7B736D",
"G  c #727C6E",
"H  c #7A7B6C",
"J  c #6E7572",
"K  c #6D7B73",
"L  c #6D7E78",
"P  c #747672",
"I  c #7E7670",
"U  c #737B74",
"Y  c #7A7B74",
"T  c #747679",
"R  c #747D7A",
"E  c #797C7A",
"W  c #825E4E",
"Q  c #825D5B",
"!  c #8C6162",
"~  c #867365",
"^  c #817966",
"/  c #83736C",
"(  c #84786C",
")  c #8B796F",
"_  c #837572",
"`  c #8B7770",
"'  c #877C76",
"]  c #927D7A",
"[  c #6B8272",
"{  c #67817E",
"}  c #6E8179",
"|  c #738175",
" . c #7B8474",
".. c #768A71",
"X. c #74847B",
"o. c #7C847D",
"O. c #778A7E",
"+. c #7B897D",
"@. c #70917E",
"#. c #7D937E",
"$. c #808277",
"%. c #8E8075",
"&. c #878973",
"*. c #83847D",
"=. c #8C847F",
"-. c #82897C",
";. c #8D897E",
":. c #92827C",
">. c #777F81",
",. c #6C8E8A",
"<. c #748780",
"1. c #7D8682",
"2. c #758A83",
"3. c #7C8B83",
"4. c #7A868B",
"5. c #748E8B",
"6. c #7A8B8A",
"7. c #6A9488",
"8. c #7C9186",
"9. c #74918D",
"0. c #7C918A",
"q. c #838582",
"w. c #898683",
"e. c #838B84",
"r. c #8B8B84",
"t. c #87858A",
"y. c #838C89",
"u. c #898B88",
"i. c #938680",
"p. c #839086",
"a. c #819288",
"s. c #8B928B",
"d. c #9D9B8F",
"f. c #858B94",
"g. c #859894",
"h. c #8F9C93",
"j. c #8C9D9D",
"k. c #929B94",
"l. c #9B9D95",
"z. c #949C9A",
"x. c #999D9A",
"c. c #AB8E86",
"v. c #A6958E",
"b. c #AC948C",
"n. c #B2918E",
"m. c #B49492",
"M. c #B39C94",
"N. c #8EA698",
"B. c #96A193",
"V. c #95A19A",
"C. c #9CA39D",
"Z. c #9FAA9F",
"A. c #A5A49C",
"S. c #ADA29C",
"D. c #AFAB9F",
"F. c #8F98A1",
"G. c #8FA3A2",
"H. c #94A1A1",
"J. c #9BA5A2",
"K. c #9EAAA3",
"L. c #A1A7A3",
"P. c #ACA2A0",
"I. c #A3ABA4",
"U. c #A2AEA9",
"Y. c #AFABA8",
"T. c #B0ABA5",
"R. c #A6B1AB",
"E. c #A8B2A9",
"W. c #A9B2B1",
/* pixels */
"f.4.6.2.#.....Z O.5.,.,.5.1.w._ { 9.g.z.1.Y m I ",
"F.4.y.-. . .A +.3.2.9.,.5.y.D I 2.y.y.l.*.=.i.v.",
">.q.*.' ~ ) ] w.e.z.j.G.6.3.R U U $.A.=.:.b.n.z ",
"1.Y F m.n.Q > _ =.k.z.>.6.3.3.+.S d.S.( l M.q , ",
"l.-.v.Q ! 6 6 y _ q.u.W.J.z.3.} g A.D.^ ; < < # ",
" .H 2 5 6 $ y l g P 4 I.I.H.1.L U p p S h X @ e ",
" . .. * * N r *.e.U b s P q.y.c O.[ U -.Y w B _ ",
"-.-.-. .Y q.e.1.K K U -.e.P T n } 3.1.1.q.e.' q.",
"-.k.k.3.3.L } 1.} +.+.1.+.u.P D 3.U.K.b U q.q.q.",
"q.u.y.2.<.0.<.3.o.p.O.p.+.B.l.r.e.n c K.q.E U 1.",
"w.q.1.e.6.1.e.q.l.P.K.3.8.h.h.e.+.+.U o.k.k.-.e.",
"t.T E o.Y D I ] S.L.z.3.O.8.3.X.p.| s  .K.E.o.O.",
"f.J x.h V M.v.~ P.Y.J L 8.X.8.L +.+.s i Z.B.8.O.",
"4.3.w.e - Q c.~ _ P J.j.5.2.2.3.1.a.e.K 3.1.o.3.",
"7.8.' l + : 1 ; F U 3.G.4.y.o.y.3.E y.R K 1.L 1.",
"7.O.B.~ W o + 0 -.y.6.4.4.H.z.o.T L t.R T u.t.R ",
"2.N.+.e.*.e.a v b K e.h.J z.A.' L J R q.k.x.U U ",
"[ Z A.T.r.q.p.O.C K 1.e.b q.e.e.y.1.E E x.x.U U ",
"-.d ` ] / F o.e.U s.U U c 1.k.I.J.K 1.q.c J 1.1.",
"( ) n.m.u 3 F o.-.-.U a b K h.U.U.n z.k.c U z.u.",
"t c.Q ! 5 7 m Y D -. .U Z K | i i U z.x.o.x.z.1.",
"j 8 > 6 & t d Y U -.u.C K a.3.k.J.1.K R 1.C.| y.",
"^ O O = 9 h r.+.I.C.K p.V.N.U p.1.3.3.1.R c R.K.",
"&.f j t %.;.S h.I.K.| 1.h.g.p.U L 3.k.I.1.s U.K."
};
