/* XPM */
static char *c5ccabd17bf9467bc72437d6e95efcccEKK5r41mjcBRX8m8[] = {
/* columns rows colors chars-per-pixel */
"50 50 16 1 ",
"  c None",
". c #DBB51B",
"X c #D1B81A",
"o c #D8BE1B",
"O c #F0B200",
"+ c #E3C81E",
"@ c #EDD11D",
"# c #FFC92D",
"$ c #FADF2E",
"% c #FFE74C",
"& c #FFE959",
"* c #FFD869",
"= c #FFED79",
"- c #FFF3A8",
"; c #FFF8CD",
": c white",
/* pixels */
"                                                  ",
"                                                  ",
"                                                  ",
"                                                  ",
"                                                  ",
"                                                  ",
"                                                  ",
"                ::::::;;;;;;;===$$$               ",
"                ::::::;;;;;;;===$$$               ",
"                ::::::;;;;;;;===$$$               ",
"             ::::::;;;-------;;;===$$$            ",
"             ::::::;;;-------;;;===$$$            ",
"             ::::::;;;-------;;;===$$$            ",
"          ::::::;;;---###ooooooo%%%---@@@         ",
"          ::::::;;;---###ooooooo%%%---@@@         ",
"          ::::::;;;---###ooooooo%%%---@@@         ",
"       ::::::;;;---###@@@ooooooo...%%%@@@@@@      ",
"       ::::::;;;---###@@@ooooooo...%%%@@@@@@      ",
"       ::::::;;;---###@@@ooooooo...%%%@@@@@@      ",
"       :::;;;---###@@@:::;;;;oooXXX***###@@@      ",
"       :::;;;---###@@@:::;;;;oooXXX***###@@@      ",
"       :::;;;---###@@@:::;;;;oooXXX***###@@@      ",
"       :::;;;###@@@:::+++;;;;***XXX***######      ",
"       :::;;;###@@@:::+++;;;;***XXX***######      ",
"       :::;;;###@@@:::+++;;;;***XXX***######      ",
"       ;;;---OOOooo;;;;;;XXXX###XXX---######      ",
"       ;;;---OOOooo;;;;;;XXXX###XXX---######      ",
"       ;;;---OOOooo;;;;;;XXXX###XXX---######      ",
"       ;;;---OOOooo;;;;;;XXXX###XXX---######      ",
"       ;;;&&&OOOoooooo&&&####XXXXXX---***OOO      ",
"       ;;;&&&OOOoooooo&&&####XXXXXX---***OOO      ",
"       ;;;&&&OOOoooooo&&&####XXXXXX---***OOO      ",
"       ---&&&%%%###XXXXXXXXXXXXX---***###OOO      ",
"       ---&&&%%%###XXXXXXXXXXXXX---***###OOO      ",
"       ---&&&%%%###XXXXXXXXXXXXX---***###OOO      ",
"          $$$%%%%%%###XXXXXXX---***###OOO         ",
"          $$$%%%%%%###XXXXXXX---***###OOO         ",
"          $$$%%%%%%###XXXXXXX---***###OOO         ",
"             $$$%%%%%%###----***###OOO            ",
"             $$$%%%%%%###----***###OOO            ",
"             $$$%%%%%%###----***###OOO            ",
"                @@@@@@$$$####OOOOOO               ",
"                @@@@@@$$$####OOOOOO               ",
"                @@@@@@$$$####OOOOOO               ",
"                                                  ",
"                                                  ",
"                                                  ",
"                                                  ",
"                                                  ",
"                                                  "
};
