/* XPM */
static char *b28863b682744a18883c566787cc40944RyBB40caCuSdzqg[] = {
/* columns rows colors chars-per-pixel */
"50 50 88 1 ",
"  c #009263",
". c #089567",
"X c #079568",
"o c #0B976A",
"O c #0E986C",
"+ c #129A6E",
"@ c #169B70",
"# c #1C9E74",
"$ c #209F76",
"% c #21A077",
"& c #24A179",
"* c #2BA47D",
"= c #31A781",
"- c #36A984",
"; c #39AA85",
": c #3EAC88",
"> c #44AF8D",
", c #46B08D",
"< c #48B18F",
"1 c #4DB292",
"2 c #53B595",
"3 c #58B799",
"4 c #5DBA9C",
"5 c #62BC9E",
"6 c #65BDA1",
"7 c #69BFA4",
"8 c #6EC1A6",
"9 c #70C2A7",
"0 c #74C3AA",
"q c #7AC6AD",
"w c #7FC9B1",
"e c #84CAB4",
"r c #89CCB6",
"t c #8DCEBA",
"y c #91CFBC",
"u c #94D1BD",
"i c #9CD5C3",
"p c #A1D7C5",
"a c #A4D8C7",
"s c #A3D7C8",
"d c #ACDBCC",
"f c #B1DECF",
"g c #B3DFD1",
"h c #B7E1D3",
"j c #BAE1D5",
"k c #BFE3D8",
"l c #C1E4DA",
"z c #C3E5DA",
"x c #C4E6DB",
"c c #C5E6DC",
"v c #C7E7DD",
"b c #C8E8DD",
"n c #CBE9DF",
"m c #CCE9E0",
"M c #CDEAE1",
"N c #CFEAE2",
"B c #D1EBE3",
"V c #D4ECE4",
"C c #D4EDE5",
"Z c #D6EEE6",
"A c #D8EEE7",
"S c #DBF0E9",
"D c #DDF1EA",
"F c #E0F1EC",
"G c #E0F2EC",
"H c #E3F2ED",
"J c #E3F3EE",
"K c #E5F4EF",
"L c #E6F4EF",
"P c #E7F5F0",
"I c #E7F5F1",
"U c #E8F5F1",
"Y c #E9F6F2",
"T c #EBF6F2",
"R c #EDF7F4",
"E c #EEF8F5",
"W c #F1F9F6",
"Q c #F3F9F7",
"! c #F3FAF7",
"~ c #F3FAF8",
"^ c #F5FBF9",
"/ c #F6FBFA",
"( c #F7FCFA",
") c #F7FEFC",
"_ c #F8FCFB",
"` c #F9FCFB",
"' c #FBFEFD",
"] c #FCFDFD",
/* pixels */
"        X@>11111111111111111111111111111#X        ",
"        X=djjkzzkkkzzzkkkzlllkklzllkkllg>X        ",
"        o,T]]]]]]]]]]]]]']]]]]]]]]]]]]]^3+        ",
"        o,T]]]]]]]]]]]]]']]]]]]]]]]]]]](3+        ",
"        O>T']]]]]]]]]]]]]]]]_jyrsG]]]]]^3+        ",
"        O>I']]]]]]]]]]]]]]]Rr<*&-6b_]]]/3+        ",
"        O>Q]]]]]]]]]]]]]]]Rd&X   X9D]]]/3+        ",
"        o>T]]]]]]]]]]]]]]]S5oo   o$g]]]/3+        ",
"        .>T`]]]]]]]]]]]]]]B:.     +d^]]/3+        ",
"        .>T]]]]]]]]]]]]]]]V1.     +f']]^3o        ",
"        o,T]]]]Hrq00q000qtdt+    X:v]]]^3+        ",
"        o,L]]]Hu*#$$$$$%#-8x3#  o-iT]]])3+        ",
"        o,T]]^g;o        .=upq449iT]]]]^3@        ",
"        o,T]]V0X #-::::*+ X*rjjzD]]]]]]^3+        ",
"        o,T'Qu& XwV''((g>   o#,7p]]]]]]~3+        ",
"        o,T'g2oX=x']''Q4+     o+2~]]]]]Q3+        ",
"        o,RH9# #iR]]]Qu*        *g^]]]]/3+        ",
"        o>Ti;X+2S]]](B<+     .X @8T]]]]/3@        ",
"        o,Hq&X-d]]]]Ge+     .<*.X=Z^]]]^3+        ",
"        X>Ga4;9W]]](f*      &dq% @dT]]])3+        ",
"        O>T'TmZ]]]'m8      oqDz2 o6m'^'E2+        ",
"        O>T']]']]]Qu#     o-A`GeX #6wwwq*X        ",
"        O>T']]]]]'h1X     *i']]d= o#$$$$O         ",
"        o>I]]]]]]L8#     @6H']]Zq$#%%%$$oX        ",
"        o>T''']]]p-     .>f]]]]^brrrreew*.        ",
"        O>T']]]]Q2o     &r)]]]]]]]]]]]]^3o        ",
"        o>T']]]]H;X     7Z]]]]]]]]]]]]]^3+        ",
"        o>T']]]]I;     XqG]]]]]]]]]]]]]'3+        ",
"        o>R']]]]L;  oX  :a']]]]]]]]]]]]Q5+        ",
"        o>T']]]]L; .$<X O3b]]]]]]]]]]]]_5O        ",
"        +>R]]]]]L;Xo>p&XX$qR]]]]]]]]]]]_5+        ",
"        o>T]]]''L; o2G8# X=j]]]]]]]]]]]_5+        ",
"        .>H]]]]]T;Xo2QG<X +<G]]]]]]]]]]'4@        ",
"    .$155rQ]]]]]H; o2Q`a: .@tG]]]]]]]]]'5@        ",
"     3ee7euiiipiy# o2Q'Hq$ .-g']]]]]]]]'4@        ",
"     7e6>*;;;;;-=o o2Q]]z5X X8b]]]]]]]]'6@        ",
"     57>    o      o2^]]Qd;o #tH]]]]]]]'5@        ",
"     77>########$##*7_]]]Gu+  ,d]]]]]]]'7@        ",
"     5gklzbmmbmmbBmmS]]]]]A4o O5T]]]]]]'5#        ",
"     $>>,8IE]^^'Q^'_]]]]]]^z*oo*r']]]]]]5#        ",
"     X.o@1T']]]]]]]]]]]]]]]Qt& O:z`]]]]'5#        ",
"        O>T]]]]]]]]]]]]]]]]]G5@ @6S']]]]5#        ",
"        o>T]]]]]]]]]]]]]]]]]_f<Oo%dT]]]]7#        ",
"        @1T']]]]]]]]]]]]]]]]]Qt>**7V]]]^5+        ",
"        &r']]]]]]]]]]]]]]]]]_]nuttsI]]`x-o        ",
"       *rG]]]]]]]]]]]]]]]]]]_z5**;pI]Th,o         ",
"      *eZ_]]]]]]]]]]]]]]]]]]x5#.$qZ^Lf2oX         ",
"      -0ipppappappappapppppi5# .&qipr2o           ",
"      o#####################.   o##$@X            ",
"                                                  "
};
