/* XPM */
static char *_a4c71c9f7464aa68ac333b6823c50027djyiKbNNwkB83gy[] = {
/* columns rows colors chars-per-pixel */
"50 50 6 1 ",
"  c #157150",
". c #24B737",
"X c #29D53F",
"o c #189065",
"O c #2BE843",
"+ c #A9F042",
/* pixels */
"oooooooooooooooooooooooooooooooooooooooooooooooooo",
"oooooooooooooooooooooooooooooooooooooooooooooooooo",
"oooooooooooooooooooooooooooooooooooooooooooooooooo",
"oooooooooooooooooooooooooooooooooooooooooooooooooo",
"ooooooooooooooooooo    oooooooooooooooooo    ooooo",
"ooooooooooooooooo   ++  ooooooooooooooo   ++  oooo",
"oooooooooooooooo  O++++ oooooooooooooo  O++++ oooo",
"ooooooooooooooo  .OO+++ ooooooooooooo  .OO+++ oooo",
"ooooooooooooooo .X.OO+  ooooooooooooo .X.OO+  oooo",
"oooooooooooooo  XX .OO ooooooooooooo  XX .OO ooooo",
"oooooooooooooo .X XX.  ooooooooooooo .X XX.  ooooo",
"oooooooooooooo  .XX.  oooooooooooooo  .XX.  oooooo",
"ooooooooooooooo  .   oooooooooooooooo  .   ooooooo",
"oooooooooooooooo   ooooooooooooooooooo   ooooooooo",
"oooooooooooooooooooooooooooooooooooooooooooooooooo",
"ooooo    ooooooooooooooooo    oooooooooooooooooooo",
"oooo  ++   oooooooooooooo  ++   oooooooooooooooooo",
"oooo ++++O  ooooooooooooo ++++O  ooooooooooooooooo",
"oooo +++OO.  oooooooooooo +++OO.  oooooooooooooooo",
"oooo  +OO.X. oooooooooooo  +OO.X. oooooooooooooooo",
"ooooo OO. XX  oooooooooooo OO. XX  ooooooooooooooo",
"ooooo  .XX X. oooooooooooo  .XX X. ooooooooooooooo",
"oooooo  .XX.  ooooooooooooo  .XX.  ooooooooooooooo",
"ooooooo   .  ooooooooooooooo   .  oooooooooooooooo",
"ooooooooo   oooooooooooooooooo   ooooooooooooooooo",
"ooooooooooooooooooo    oooooooooooooooooo    ooooo",
"ooooooooooooooooo   ++  ooooooooooooooo   ++  oooo",
"oooooooooooooooo  O++++ oooooooooooooo  O++++ oooo",
"ooooooooooooooo  .OO+++ ooooooooooooo  .OO+++ oooo",
"ooooooooooooooo .X.OO+  ooooooooooooo .X.OO+  oooo",
"oooooooooooooo  XX .OO ooooooooooooo  XX .OO ooooo",
"oooooooooooooo .X XX.  ooooooooooooo .X XX.  ooooo",
"oooooooooooooo  .XX.  oooooooooooooo  .XX.  oooooo",
"ooooooooooooooo  .   oooooooooooooooo  .   ooooooo",
"oooooooooooooooo   ooooooooooooooooooo   ooooooooo",
"oooooooooooooooooooooooooooooooooooooooooooooooooo",
"ooooo    ooooooooooooooooo    oooooooooooooooooooo",
"oooo  ++   oooooooooooooo  ++   oooooooooooooooooo",
"oooo ++++O  ooooooooooooo ++++O  ooooooooooooooooo",
"oooo +++OO.  oooooooooooo +++OO.  oooooooooooooooo",
"oooo  +OO.X. oooooooooooo  +OO.X. oooooooooooooooo",
"ooooo OO. XX  oooooooooooo OO. XX  ooooooooooooooo",
"ooooo  .XX X. oooooooooooo  .XX X. ooooooooooooooo",
"oooooo  .XX.  ooooooooooooo  .XX.  ooooooooooooooo",
"ooooooo   .  ooooooooooooooo   .  oooooooooooooooo",
"ooooooooo   oooooooooooooooooo   ooooooooooooooooo",
"oooooooooooooooooooooooooooooooooooooooooooooooooo",
"oooooooooooooooooooooooooooooooooooooooooooooooooo",
"oooooooooooooooooooooooooooooooooooooooooooooooooo",
"oooooooooooooooooooooooooooooooooooooooooooooooooo"
};
