/* XPM */
static char *_0794e557d0e4535e8de2117fd3857c9alqOs1hPnUQAFmBf[] = {
/* columns rows colors chars-per-pixel */
"50 50 4 1 ",
"  c #157150",
". c #1B9B5F",
"X c #189065",
"o c #1EAA68",
/* pixels */
"XXXXXXXXXXXXXXXXXXXXXXXXXXXXXXXXXXXXXXXXXXXXXXXXXX",
"XXXXXXXXXXXXXXXXXXXXXXXXXXXXXXXXXXXXXXXXXXXXXXXXXX",
"XXXXXXXXXXXXXXXXXXXXXXXXXXXXXXXX   XXXXXXXXXXXXXXX",
"XXXXXXXXXXXXXXXXXXXXXXXXXXXXXXX  o XXXXXXXXXXXXXXX",
"XXXXXXXXXXXXXXXXXXXXXX     XXXX o. XXXXXXXXXXXXXXX",
"XXXXXXXXXXXXXXX     X  ooo XXX  .. XXXXXXXXXXXXXXX",
"XXXXXXXXXXXXXX  ooo   o... XXX o.. XXXXXXXXXXXXXXX",
"XXXXXXXXXXXXXX o.... ....  XXX ... XXXXXXXXXXXXXXX",
"XXXXXXXX    XX  ........  XXXX ... XXX    XX   XXX",
"XXXXX    oo XXX    ....  XXXXX  .. XXX oo  X o  XX",
"XXX   oo .. XXXXXX  ... XXXXXXXXXXXXXX ..o   .o XX",
"XX  oo..o.. XXXXXXXXXXXXXXXXXXXXXXXXXX   .o  .. XX",
"XX o....... XXXXXXXXXXXXXXXXXXXXXXXX      ..... XX",
"XX ..    .. XXXXXXXXXXXXXXXXXXXXXXX  oooo ..... XX",
"XX    XXXXXXXXXXXXXXXXXXXXXXXXXXXX  o.........  XX",
"XXXXXXXXXXXXXXXXXXXXXXXXXXX   XXXX o...  ....  XXX",
"XXXXXXXXXXXXX   XXXXXXXXXXX o  XXX         .. XXXX",
"XXXXXXXXXXXX  o XXXXXXXX    .o XXXXXXXXXXXXXXXXXXX",
"XXXXXXXXXXXX o. XXXXXXX  oo .. XXXXXXXXXXXXXXXXXXX",
"XXXXXXXXXXXX ..  XXXXX  o....  XXXXXXXXXXXXXXXXXXX",
"XXXXXXXXXXXX ..o  XXXX o.. .. XXXXXXXXXXXXXXXXXXXX",
"XXXX   XXXXX  ..o XXXX     .. XXXXXXXXXXXXXXXXXXXX",
"XXX  o XXXXXX ... XXXXXXXXXXXXXXXXX   XXXXXXXXXXXX",
"XXX o.   XXXX  .. XXXXXXXXXXXXXXXX  o XXXXXXXXXXXX",
"XXX .. o XXXXX .. XXXXXXXXXXXXXXXX o. XXXXXX   XXX",
"XXX .... XXXXXXXXXXXXXXXXXXXXXXXX  .. XXXXXX o  XX",
"XXX ...  XXXXXXXXXXXXXXXXXXXXXXXX o..  XXXXX .o XX",
"XXX ..  XXXXXXXXXXXXXXXXXXXXXXXXX .... XXXX  .. XX",
"XXXXXXXXXXXXXXXXXXXXXXXXXXXXXXXXXXXXXXXXXXX o.. XX",
"XXXXXXXXXXXXXXXXXXXX    X    XXXXXXXXXXXXXX ..  XX",
"XXXXXXXXXXXXXXXXXXXX oo   oo XXXXXXXXXXXXXX .. XXX",
"XXXXXX    X    XXXXX ..o o.. XXXXXXXXXXXXXXXXXXXXX",
"XXXXX  oo   oo XXXXX  ...... XXXXXXXXXXXXXXXXXXXXX",
"XXXX  o..o o.  XXXXXX   ...  XXXXXXXXX    XXXXXXXX",
"XXXX o......  XXXXXXXXX ...o XXXXXXXX  oo XXXXXXXX",
"XXXX    ...  XXXXXXXXXX .... XXXXXXXX ooo XXXXXXXX",
"XXXXXXXXXXXXXXXXXXXXXXX  ..  XXXXXXX  oo  XXXXXXXX",
"XXXXXXXXXXXXXXXXXXXXXXXXXXXXXXXXXXXX ooo XXX    XX",
"XXXXXXXXXXXXXXXXXXXXXXXXXXXXXXXXXXXX oo.     oo XX",
"XXXXXXXXXXXXXXXXXXXXXXXXXXXXXXXXXXXX ...  ooo.. XX",
"XXXXXXXXXXXX    XXXXXXXXXXXXXXXXXXX  ...oo..... XX",
"XXXXXXXXX    oo XXXXXXXXXXXXX   XX  o.........  XX",
"XXXXXXX   ooo.. XXXXXXXXXXXXX o    o........   XXX",
"XXXXXX  oo.....       XXXXXXX .oooo.......   XXXXX",
"XXXXX  o....... ooooo  XXXXXX ..........   XXXXXXX",
"XXXXX o...............  XXXXX  ..... ... XXXXXXXXX",
"XXXXX ....   .......... XXXXXX       ... XXXXXXXXX",
"XXXXX      X ..         XXXXXXXXXXXXXXXXXXXXXXXXXX",
"XXXXXXXXXXXXXXXXXXXXXXXXXXXXXXXXXXXXXXXXXXXXXXXXXX",
"XXXXXXXXXXXXXXXXXXXXXXXXXXXXXXXXXXXXXXXXXXXXXXXXXX"
};
