/* XPM */
static char *fb416753bbc744f9891dc3f1ca764631ccTeNV2fMRCZoljJ[] = {
/* columns rows colors chars-per-pixel */
"50 50 10 1 ",
"  c None",
". c #090000",
"X c #0A0000",
"o c #1E0000",
"O c #4E0000",
"+ c #670000",
"@ c #680000",
"# c #6F0000",
"$ c #A00000",
"% c red",
/* pixels */
"                                                  ",
"                                                  ",
"                       %%%%                       ",
"                    %%%%%%%%%                     ",
"                    %%%%%%%%%%                    ",
"                   %%%.@%%.O%%                    ",
"                   %%%#$%%o+%%                    ",
"                   %%%%%%%%%%%                    ",
"                   %%%%%%%%%%%                    ",
"                    %%%%%%%%%                     ",
"                      %%%%%                       ",
"                       %%%%                       ",
"                       %%%%                       ",
"                       %%%%                       ",
"                       %%%%                       ",
"                       %%%%                       ",
"                       %%%%                       ",
"                       %%%%                       ",
"          %            %%%%                       ",
"        %%%%%%%%%%%%%%%%%%%%%%%%%%%%%%%%%         ",
"        %%%%%%%%%%%%%%%%%%%%%%%%%%%%%%%%%%        ",
"         %%%%%%%%%%%%%%%%%%%%%%%%%%%%%%%%         ",
"                       %%%%          %%%          ",
"                       %%%%                       ",
"                       %%%%                       ",
"                       %%%%                       ",
"                       %%%%                       ",
"                       %%%%                       ",
"                       %%%%                       ",
"                       %%%%                       ",
"                       %%%%                       ",
"                       %%%%                       ",
"                       %%%%                       ",
"                      %%%%%                       ",
"                     %%%%%%%                      ",
"                    %%%%%%%%                      ",
"                   %%%%%%%%%                      ",
"                  %%%%%  %%%%                     ",
"                %%%%%%   %%%%                     ",
"               %%%%%%     %%%%                    ",
"              %%%%%%      %%%%%                   ",
"             %%%%%%        %%%%%                  ",
"           %%%%%%           %%%%%%                ",
"          %%%%%%             %%%%%%               ",
"          %%%%%               %%%%%%%             ",
"          %%%                   %%%%%             ",
"                                 %%%%             ",
"                                   %%             ",
"                                                  ",
"                                                  "
};
