/* XPM */
static char *_fb9006bfc144a41da23b71f03f041d4fpW9IkKHdNsKwJ1Z[] = {
/* columns rows colors chars-per-pixel */
"50 50 130 2 ",
"   c None",
".  c gray5",
"X  c #0E0E0E",
"o  c gray6",
"O  c #101010",
"+  c #111111",
"@  c gray7",
"#  c #131313",
"$  c gray8",
"%  c #151515",
"&  c #161616",
"*  c gray9",
"=  c #181818",
"-  c #191919",
";  c gray10",
":  c #1B1B1B",
">  c gray11",
",  c #1D1D1D",
"<  c #1E1E1E",
"1  c gray12",
"2  c #202020",
"3  c gray13",
"4  c #222222",
"5  c #232323",
"6  c gray14",
"7  c #252525",
"8  c gray15",
"9  c #272727",
"0  c #282828",
"q  c gray16",
"w  c #2A2A2A",
"e  c gray17",
"r  c #2C2C2C",
"t  c #2D2D2D",
"y  c gray18",
"u  c #2F2F2F",
"i  c gray19",
"p  c #313131",
"a  c #323232",
"s  c gray20",
"d  c #343434",
"f  c #353535",
"g  c gray21",
"h  c #373737",
"j  c gray22",
"k  c #393939",
"l  c #3A3A3A",
"z  c #3B3A3B",
"x  c gray23",
"c  c #3C3C3C",
"v  c gray24",
"b  c #3E3E3E",
"n  c #3F3F3F",
"m  c gray25",
"M  c #414141",
"N  c gray26",
"B  c #434343",
"V  c #444344",
"C  c #444444",
"Z  c gray27",
"A  c #464646",
"S  c #474647",
"D  c gray28",
"F  c #484748",
"G  c #484848",
"H  c #494949",
"J  c gray29",
"K  c #4B4B4B",
"L  c #4C4B4C",
"P  c #4C4C4C",
"I  c #4D4C4D",
"U  c gray30",
"Y  c #4E4D4E",
"T  c #4E4E4E",
"R  c gray31",
"E  c #504F50",
"W  c #505050",
"Q  c #515151",
"!  c #525152",
"~  c gray32",
"^  c #535253",
"/  c #535353",
"(  c #545354",
")  c gray33",
"_  c #555455",
"`  c #555555",
"'  c #565556",
"]  c #565656",
"[  c gray34",
"{  c #585758",
"}  c #585858",
"|  c gray35",
" . c #5A5A5A",
".. c #5B5A5B",
"X. c #5B5B5B",
"o. c gray36",
"O. c #5D5D5D",
"+. c #5E5D5E",
"@. c gray37",
"#. c #5F5E5F",
"$. c #5F5F5F",
"%. c #606060",
"&. c gray38",
"*. c #626262",
"=. c gray39",
"-. c #646464",
";. c #656565",
":. c gray40",
">. c #676767",
",. c #686868",
"<. c DimGray",
"1. c #6A6A6A",
"2. c gray42",
"3. c #6C6C6C",
"4. c #6D6D6D",
"5. c gray43",
"6. c #6F6F6F",
"7. c #727272",
"8. c #747474",
"9. c gray47",
"0. c #797979",
"q. c gray48",
"w. c #7B7B7B",
"e. c #808080",
"r. c #838283",
"t. c #898989",
"y. c #939393",
"u. c gray58",
"i. c gray62",
"p. c gray71",
/* pixels */
"                                                                                                    ",
"                                    9 4 = = 4 < = * # # *                                           ",
"                                4 = 4 0 9 9 9 9 4 = = # X X X # #                                   ",
"                              4 < 4 9 4 t s 4 0 0 < 9 < * # # # * # *                               ",
"                          t 9 4 4 9 0 0 9 x 0 9 4 < = = # * = * * * # X                             ",
"                        4 = 4 4 < < 9 0 0 t s 9 4 = * * # # X # # * * # =                           ",
"                      < 4 4 = = 4 9 0 0 t s h x x t 0 0 4 < = = = < = = 9 4                         ",
"                    0 0 t t 0 4 9 9 t t h m G U G m C x x h s t t t t s x 0                         ",
"                    4 4 < 0 9 4 4 9 9 s C Q ) ) ) G G m b b x h h x b U ) d 9                       ",
"                    # = < 9 4 < = < 6 h U )  . . .) G C m b x h h j C )  .X.t                       ",
"                  4 < < 9 t 0 9 2 4 t b U )  .) ) ) Q m b x x h x x m U  .=.E 9                     ",
"                  4 4 < 4 4 9 4 4 9 x m F {  .) ) Q U m x h h s s h b G Q %.=.x                     ",
"                  4 < 0 < 4 4 9 t d m C C ) o.{ ) Q G m x h h s s h b m U $.4. .                    ",
"                9 4 < 4 = < 9 t s h x F  .%. .( ) U m x x h x h h x G m F %.;.4.                    ",
"                4 4 = = 4 4 0 t h b U $.%.o.) ( U m s 0 9 0 t s s x Q U x  .;.4.b                   ",
"                4 = = < 4 4 0 t s Q %.$.)  .{ C h 9 4 = = * * < 0 s b Q h  .%.q.G                   ",
"                4 = = < 6 9 9 r m %.;.o.) ) G x s h s 0 9 = # # = 9 t s x Q %.q.%.                  ",
"                < : = 4 9 9 4 s U ;.%. . .Q Q C C s 9 4 4 < = * < < 4 9 b x m o.%.                  ",
"                9 t t 9 9 9 9 s ) ;.o.) )  .m x 9 < * # . . # * t t t s m 9 9 t m b                 ",
"                  j %.G m i 0 x { %.%. . .) m h t s t 9 * # X # 0 U Q C U = * * 4 s x               ",
"                s ) %.=.%.C s C  .=.o. .Q U m b s 0 9 4 < = # # s  .) C b * * 4 b x x               ",
"                x ) Q 2.4.U b C o.%.$.X.( Q U C x t 4 < = * * < x ) Q m b # X * x  .                ",
"                C U F C ;.G s m  .o. .o.o. . .( C x t 9 4 = < h C o.) m m < # 9 =                   ",
"                h t i Q  .U 9 s U ) ) )  . .) ) G b s 9 9 4 9 b ) %. .U C 0 4 C x                   ",
"                9 4 C ;.%. .9 0 G ) Q  .) ) ) U C x t 0 9 4 4 x %.;.o.) C m 4 m  .                  ",
"                m 0 ) 2.;.Q 0 0 b ) ) ) Q ) G b x h s 0 < < 9 C U G ) ) G G G x Q                   ",
"                G U U C ;.C 0 s h m U L U U b b m x h 4 = 4 0 ) ;.) o.o.C m 4.G 4.                  ",
"                  )  .Q 2.b t x s h b b h x t G U b 9 = < 0 t x m s x C b G o.) r.i.                ",
"                  { o. .Q h 9 h b s s t 0 9 t Q C < * * < 9 < < < 9 t b C h 0 b y.p.                ",
"                    ) o.U s t h m s t 9 9 < 0 Q t # # * = = * * * = < t G m < b y.                  ",
"                     .4.U t s h b h t 9 < = 9 C 9 # # 9 s h t 0 4 9 < 9 m b 0 U q.                  ",
"                    ) 2.C x x h h h t 9 * * = t 9 # . * t s h h s 0 9 h m h t U 2.                  ",
"                     .%.b b x x t 0 t 9 = # * t 0 # # < h G )  .G x t x  .G s Q                     ",
"                     .%.h x F C s 6 6 4 * O * 9 0 * = 0 d t h m  .Q 4.r.h h 4 m                     ",
"                    o.$.h x b C s 6 4 4 = O # 4 6 # * < s x h s h m o.q.b # = h                     ",
"                    %.o.t s m m h 0 = = = * # 4 4 # # * < 0 x b h h C %.8.t 0 9                     ",
"                    %.%.s t x h t 9 4 < = $ # 9 4 $ # * * = < 9 2 9 x  .7.x d                       ",
"                   .%.;.b 4 0 0 0 9 < < * # # < < # # # * = = < * # 6 C b t x                       ",
"                   .%.;.o.s 4 4 9 4 4 4 # # # 2 9 = * O $ * = = = < 0 U b t m                       ",
"                   .%.;.;.Q s 2 = < < = * X O 9 9 = * # * * * * = = s U x t L                       ",
"                  o.%.;.%.%. .G 9 = * = = # # < 9 2 = * * O # $ = < 0 x t t  .                      ",
"                  o.;.;.;.;.%.o./ x 4 # # * # < 0 9 < = * # # # * = < 0 9 h  .                      ",
"                 .o.;.;.2.%.%.o. .Q G s * # # * 9 9 0 4 = = # # # * < 4 0 b o.                      ",
"                 .$.%.;.;.;.o.) /  .Q G h 4 * * 2 0 d r 0 4 < = * * = 0 x G %.                      ",
"                X.%.;.2.%.%.o.( Q ) Q U G m 4 * = 4 9 9 9 4 = < = * = 9 s G  .                      ",
"              U o.%.2.;.;.%. .) U Q R G G G b < * * < < = 4 = = = * * 9 d C G                       ",
"            G Q $.;.2.2.-. .)  .) E U U Q U G b 0 * $ * * * = * * * = 9 s C                         ",
"          G G  .%.;.;.2.%. . .) { Q U Q Q / U C b 9 = * $ $ # * # # = 4 s                           ",
"  G C C C G U o.=.;.2.;.o. . .) Q ( E ( ) ) Q G x 0 9 9 4 0 t < = = 4 9                             ",
"m m G G C U Q %.;.;.;.;.%.%.o. .Q Q ) Q ) [ Q C x 0 0 h U 7.t.o.                                    "
};
