/* XPM */
static char *spawn1673869541[] = {
/* columns rows colors chars-per-pixel */
"50 50 2 1 ",
"  c None",
". c #003DFF",
/* pixels */
"                                                  ",
"                                                  ",
"                                                  ",
"                                                  ",
"             ....................                 ",
"             ........................             ",
"            ...........................           ",
"            ...                ...........        ",
"           ....                    ........       ",
"           ....                       .......     ",
"           ....                         ......    ",
"           ....                           .....   ",
"           ....                            ....   ",
"           ....                             ...   ",
"           ....                             ....  ",
"           ....                             ....  ",
"           ....                             ...   ",
"           ....                             ...   ",
"           ....                            ....   ",
"           ....                           ....    ",
"           ....                          .....    ",
"           ....                      ........     ",
"          ..................................      ",
"         .................................        ",
"         .............................            ",
"          ......                                  ",
"          .....                                   ",
"          .....                                   ",
"          .....                                   ",
"           .....                                  ",
"           .....                                  ",
"           .....                                  ",
"           .....                                  ",
"           .....                                  ",
"           .....                                  ",
"           .....                                  ",
"           ......                                 ",
"           ......                                 ",
"            .....                                 ",
"            .....                                 ",
"            .....                                 ",
"            .....                                 ",
"            .....                                 ",
"            .....                                 ",
"            .....                                 ",
"            .....                                 ",
"            ...                                   ",
"            ...                                   ",
"            ...                                   ",
"                                                  "
};
