/* XPM */
static char *dabab47d6b474e6d80cffb510f275cd5EAwU2N848d5fsYOU[] = {
/* columns rows colors chars-per-pixel */
"50 50 4 1 ",
"  c #263238",
". c #37474F",
"X c #455A64",
"o c #607D8B",
/* pixels */
"................ ............... ................ ",
".XX............. .XX............ .XX............. ",
".X.............. .X............. .X.............. ",
"................ ............... ................ ",
"................ ............... ................ ",
"................ ............... ................ ",
"................ ............... ................ ",
"................ ............... ................ ",
"                X               X                X",
"XXXXXXXX XXXXXXXXXXXXXXX XXXXXXXXXXXXXXXX XXXXXXXX",
"XXXXXXXX XooXXXXXXXXXXXX XooXXXXXXXXXXXXX XooXXXXX",
"XXXXXXXX XoXXXXXXXXXXXXX XoXXXXXXXXXXXXXX XoXXXXXX",
"XXXXXXXX XXXXXXXXXXXXXXX XXXXXXXXXXXXXXXX XXXXXXXX",
"XXXXXXXX XXXXXXXXXXXXXXX XXXXXXXXXXXXXXXX XXXXXXXX",
"XXXXXXXX XXXXXXXXXXXXXXX XXXXXXXXXXXXXXXX XXXXXXXX",
"XXXXXXXX XXXXXXXXXXXXXXX XXXXXXXXXXXXXXXX XXXXXXXX",
"        .               .                .        ",
"................ ............... ................ ",
".XX............. .XX............ .XX............. ",
".X.............. .X............. .X.............. ",
"................ ............... ................ ",
"................ ............... ................ ",
"................ ............... ................ ",
"................ ............... ................ ",
"                X               X                X",
"XXXXXXXX XXXXXXXXXXXXXXX XXXXXXXXXXXXXXXX XXXXXXXX",
"XXXXXXXX XooXXXXXXXXXXXX XooXXXXXXXXXXXXX XooXXXXX",
"XXXXXXXX XoXXXXXXXXXXXXX XoXXXXXXXXXXXXXX XoXXXXXX",
"XXXXXXXX XXXXXXXXXXXXXXX XXXXXXXXXXXXXXXX XXXXXXXX",
"XXXXXXXX XXXXXXXXXXXXXXX XXXXXXXXXXXXXXXX XXXXXXXX",
"XXXXXXXX XXXXXXXXXXXXXXX XXXXXXXXXXXXXXXX XXXXXXXX",
"XXXXXXXX XXXXXXXXXXXXXXX XXXXXXXXXXXXXXXX XXXXXXXX",
"        .               .                .        ",
"................ ............... ................ ",
".XX............. .XX............ .XX............. ",
".X.............. .X............. .X.............. ",
"................ ............... ................ ",
"................ ............... ................ ",
"................ ............... ................ ",
"................ ............... ................ ",
"                X               X                X",
"XXXXXXXX XXXXXXXXXXXXXXX XXXXXXXXXXXXXXXX XXXXXXXX",
"XXXXXXXX XooXXXXXXXXXXXX XooXXXXXXXXXXXXX XooXXXXX",
"XXXXXXXX XoXXXXXXXXXXXXX XoXXXXXXXXXXXXXX XoXXXXXX",
"XXXXXXXX XXXXXXXXXXXXXXX XXXXXXXXXXXXXXXX XXXXXXXX",
"XXXXXXXX XXXXXXXXXXXXXXX XXXXXXXXXXXXXXXX XXXXXXXX",
"XXXXXXXX XXXXXXXXXXXXXXX XXXXXXXXXXXXXXXX XXXXXXXX",
"XXXXXXXX XXXXXXXXXXXXXXX XXXXXXXXXXXXXXXX XXXXXXXX",
"XXXXXXXX XXXXXXXXXXXXXXX XXXXXXXXXXXXXXXX XXXXXXXX",
"                                                  "
};
