/* XPM */
static char *result[] = {
/* columns rows colors chars-per-pixel */
"50 50 18 1 ",
"  c #D19B00",
". c #DBB51B",
"X c #D1B81A",
"o c #D8BE1B",
"O c #F0B200",
"+ c #DEC31B",
"@ c #E3C81E",
"# c #EDD11D",
"$ c #FFC92D",
"% c #FADF2E",
"& c #FFE74C",
"* c #FFE959",
"= c #FFD869",
"- c #FFED79",
"; c #FFF3A8",
": c #FFF8CD",
"> c white",
", c None",
/* pixels */
",,,,,,,,,,,,,,,,,,,,,,,,,,,,,,,,,,,,,,,,,,,,,,,,,,",
",,,,,,,,,,,,,,,,,,,,,,,,,,,,,,,,,,,,,,,,,,,,,,,,,,",
",,,,,,,,,,,,,,,,,,,,,,,,,,,,,,,,,,,,,,,,,,,,,,,,,,",
",,,,,,,,,,,,,,,,,,,,,,,,,,,,,,,,,,,,,,,,,,,,,,,,,,",
",,,,,,,,,,,,,,,,,,,,,,,,,,,,,,,,,,,,,,,,,,,,,,,,,,",
",,,,,,,,,,,,,,,,,,,,,,,,,,,,,,,,,,,,,,,,,,,,,,,,,,",
",,,,,,,,,,,,,,,,,,,,,,,,,,,,,,,,,,,,,,,,,,,,,,,,,,",
",,,,,,,,,,,,,>>>>>>::::::----------%%%,,,,,,,,,,,,",
",,,,,,,,,,,,,>>>>>>::::::----------%%%,,,,,,,,,,,,",
",,,,,,,,,,,,,>>>>>>::::::----------%%%,,,,,,,,,,,,",
",,,,,,,,,,>>>::::::###++++++++++:::---%%%,,,,,,,,,",
",,,,,,,,,,>>>::::::###++++++++++:::---%%%,,,,,,,,,",
",,,,,,,,,,>>>::::::###++++++++++:::---%%%,,,,,,,,,",
",,,,,,,>>>:::;;;###+++ooooooooooooo&&&:::%%%,,,,,,",
",,,,,,,>>>:::;;;###+++ooooooooooooo&&&:::%%%,,,,,,",
",,,,,,,>>>:::;;;###+++ooooooooooooo&&&:::%%%,,,,,,",
",,,,,,,>>>;;;###+++ooo>>>>>>>oooXXX...&&&###,,,,,,",
",,,,,,,>>>;;;###+++ooo>>>>>>>oooXXX...&&&###,,,,,,",
",,,,,,,>>>;;;###+++ooo>>>>>>>oooXXX...&&&###,,,,,,",
",,,,,,,:::$$$+++ooo>>>@@@@@@@:::XXXXXX======,,,,,,",
",,,,,,,:::$$$+++ooo>>>@@@@@@@:::XXXXXX======,,,,,,",
",,,,,,,:::$$$+++ooo>>>@@@@@@@:::XXXXXX======,,,,,,",
",,,,,,,;;;$$$ooo>>>@@@>>>====XXX===XXX===$$$,,,,,,",
",,,,,,,;;;$$$ooo>>>@@@>>>====XXX===XXX===$$$,,,,,,",
",,,,,,,;;;$$$ooo>>>@@@>>>====XXX===XXX===$$$,,,,,,",
",,,,,,,***$$$ooo:::@@@===$$$$XXX$$$XXX$$$***,,,,,,",
",,,,,,,***$$$ooo:::@@@===$$$$XXX$$$XXX$$$***,,,,,,",
",,,,,,,***$$$ooo:::@@@===$$$$XXX$$$XXX$$$***,,,,,,",
",,,,,,,***$$$ooo:::@@@===$$$$XXX$$$XXX$$$***,,,,,,",
",,,,,,,***OOOoooooo***XXXXXXX$$$XXXXXX$$$***,,,,,,",
",,,,,,,***OOOoooooo***XXXXXXX$$$XXXXXX$$$***,,,,,,",
",,,,,,,***OOOoooooo***XXXXXXX$$$XXXXXX$$$***,,,,,,",
",,,,,,,%%%&&&OOOXXXXXX===$$$$XXXXXX===***OOO,,,,,,",
",,,,,,,%%%&&&OOOXXXXXX===$$$$XXXXXX===***OOO,,,,,,",
",,,,,,,%%%&&&OOOXXXXXX===$$$$XXXXXX===***OOO,,,,,,",
",,,,,,,%%%&&&&&&OOOXXXXXXXXXXXXX===***OOO   ,,,,,,",
",,,,,,,%%%&&&&&&OOOXXXXXXXXXXXXX===***OOO   ,,,,,,",
",,,,,,,%%%&&&&&&OOOXXXXXXXXXXXXX===***OOO   ,,,,,,",
",,,,,,,,,,%%%&&&&&&$$$$$$=======***OOO   ,,,,,,,,,",
",,,,,,,,,,%%%&&&&&&$$$$$$=======***OOO   ,,,,,,,,,",
",,,,,,,,,,%%%&&&&&&$$$$$$=======***OOO   ,,,,,,,,,",
",,,,,,,,,,,,,######%%%%%%*******      ,,,,,,,,,,,,",
",,,,,,,,,,,,,######%%%%%%*******      ,,,,,,,,,,,,",
",,,,,,,,,,,,,######%%%%%%*******      ,,,,,,,,,,,,",
",,,,,,,,,,,,,,,,,,,,,,,,,,,,,,,,,,,,,,,,,,,,,,,,,,",
",,,,,,,,,,,,,,,,,,,,,,,,,,,,,,,,,,,,,,,,,,,,,,,,,,",
",,,,,,,,,,,,,,,,,,,,,,,,,,,,,,,,,,,,,,,,,,,,,,,,,,",
",,,,,,,,,,,,,,,,,,,,,,,,,,,,,,,,,,,,,,,,,,,,,,,,,,",
",,,,,,,,,,,,,,,,,,,,,,,,,,,,,,,,,,,,,,,,,,,,,,,,,,",
",,,,,,,,,,,,,,,,,,,,,,,,,,,,,,,,,,,,,,,,,,,,,,,,,,"
};
