/* XPM */
static char *result[] = {
/* columns rows colors chars-per-pixel */
"50 50 14 1 ",
"  c #D1B81A",
". c #D8BE1B",
"X c #F0B200",
"o c #DEC31B",
"O c #EDD11D",
"+ c #FFC92D",
"@ c #FADF2E",
"# c #FFE74C",
"$ c #FFE959",
"% c #FFD869",
"& c #FFED79",
"* c #FFF8CD",
"= c white",
"- c None",
/* pixels */
"--------------------------------------------------",
"--------------------------------------------------",
"--------------------------------------------------",
"--------------------------------------------------",
"--------------------------------------------------",
"--------------------------------------------------",
"--------------------------------------------------",
"-------------------==========***------------------",
"-------------------==========***------------------",
"-------------------==========***------------------",
"-------------------======****OOO------------------",
"-------------------======****OOO------------------",
"-------------------======****OOO------------------",
"----------------======***####&&&@@@---------------",
"----------------======***####&&&@@@---------------",
"----------------======***####&&&@@@---------------",
"----------------======***@@@@###&&&---------------",
"----------------======***@@@@###&&&---------------",
"----------------======***@@@@###&&&---------------",
"----------------===***@@@    $$$XXX---------------",
"----------------===***@@@    $$$XXX---------------",
"----------------===***@@@    $$$XXX---------------",
"----------------===***...    +++XXX---------------",
"----------------===***...    +++XXX---------------",
"----------------===***...    +++XXX---------------",
"----------------===ooo...    +++XXX---------------",
"----------------===ooo...    +++XXX---------------",
"----------------===ooo...    +++XXX---------------",
"----------------===ooo...    +++XXX---------------",
"----------------===+++...    +++XXX---------------",
"----------------===+++...    +++XXX---------------",
"----------------===+++...    +++XXX---------------",
"----------------***###...%%%%XXXXXX---------------",
"----------------***###...%%%%XXXXXX---------------",
"----------------***###...%%%%XXXXXX---------------",
"----------------@@@###OOO++++XXXXXX---------------",
"----------------@@@###OOO++++XXXXXX---------------",
"----------------@@@###OOO++++XXXXXX---------------",
"-------------------OOO+++XXXXXXX------------------",
"-------------------OOO+++XXXXXXX------------------",
"-------------------OOO+++XXXXXXX------------------",
"-------------------OOOXXXXXXXXXX------------------",
"-------------------OOOXXXXXXXXXX------------------",
"-------------------OOOXXXXXXXXXX------------------",
"--------------------------------------------------",
"--------------------------------------------------",
"--------------------------------------------------",
"--------------------------------------------------",
"--------------------------------------------------",
"--------------------------------------------------"
};
