/* XPM */
static char *result[] = {
/* columns rows colors chars-per-pixel */
"50 50 10 1 ",
"  c #F0B200",
". c #DEC31B",
"X c #FFC92D",
"o c #FFE74C",
"O c #FFD869",
"+ c #FFED79",
"@ c #FFF3A8",
"# c #FFF8CD",
"$ c white",
"% c None",
/* pixels */
"%%%%%%%%%%%%%%%%%%%%%%%%%%%%%%%%%%%%%%%%%%%%%%%%%%",
"%%%%%%%%%%%%%%%%%%%%%%%%%%%%%%%%%%%%%%%%%%%%%%%%%%",
"%%%%%%%%%%%%%%%%%%%%%%%%%%%%%%%%%%%%%%%%%%%%%%%%%%",
"%%%%%%%%%%%%%%%%%%%%%%%%%%%%%%%%%%%%%%%%%%%%%%%%%%",
"%%%%%%%%%%%%%%%%%%%%%%%%%%%%%%%%%%%%%%%%%%%%%%%%%%",
"%%%%%%%%%%%%%%%%%%%%%%%%%%%%%%%%%%%%%%%%%%%%%%%%%%",
"%%%%%%%%%%%%%%%%%%%%%%%%%%%%%%%%%%%%%%%%%%%%%%%%%%",
"%%%%%%%%%%%%%%%%%%%%%%$$$$$$$%%%%%%%%%%%%%%%%%%%%%",
"%%%%%%%%%%%%%%%%%%%%%%$$$$$$$%%%%%%%%%%%%%%%%%%%%%",
"%%%%%%%%%%%%%%%%%%%%%%$$$$$$$%%%%%%%%%%%%%%%%%%%%%",
"%%%%%%%%%%%%%%%%%%%$$$$$$####@@@%%%%%%%%%%%%%%%%%%",
"%%%%%%%%%%%%%%%%%%%$$$$$$####@@@%%%%%%%%%%%%%%%%%%",
"%%%%%%%%%%%%%%%%%%%$$$$$$####@@@%%%%%%%%%%%%%%%%%%",
"%%%%%%%%%%%%%%%%%%%$$$$$$####+++%%%%%%%%%%%%%%%%%%",
"%%%%%%%%%%%%%%%%%%%$$$$$$####+++%%%%%%%%%%%%%%%%%%",
"%%%%%%%%%%%%%%%%%%%$$$$$$####+++%%%%%%%%%%%%%%%%%%",
"%%%%%%%%%%%%%%%%%%%$$$###ooooXXX%%%%%%%%%%%%%%%%%%",
"%%%%%%%%%%%%%%%%%%%$$$###ooooXXX%%%%%%%%%%%%%%%%%%",
"%%%%%%%%%%%%%%%%%%%$$$###ooooXXX%%%%%%%%%%%%%%%%%%",
"%%%%%%%%%%%%%%%%%%%$$$###OOOO   %%%%%%%%%%%%%%%%%%",
"%%%%%%%%%%%%%%%%%%%$$$###OOOO   %%%%%%%%%%%%%%%%%%",
"%%%%%%%%%%%%%%%%%%%$$$###OOOO   %%%%%%%%%%%%%%%%%%",
"%%%%%%%%%%%%%%%%%%%$$$###OOOO   %%%%%%%%%%%%%%%%%%",
"%%%%%%%%%%%%%%%%%%%$$$###OOOO   %%%%%%%%%%%%%%%%%%",
"%%%%%%%%%%%%%%%%%%%$$$###OOOO   %%%%%%%%%%%%%%%%%%",
"%%%%%%%%%%%%%%%%%%%$$$...XXXX   %%%%%%%%%%%%%%%%%%",
"%%%%%%%%%%%%%%%%%%%$$$...XXXX   %%%%%%%%%%%%%%%%%%",
"%%%%%%%%%%%%%%%%%%%$$$...XXXX   %%%%%%%%%%%%%%%%%%",
"%%%%%%%%%%%%%%%%%%%$$$...XXXX   %%%%%%%%%%%%%%%%%%",
"%%%%%%%%%%%%%%%%%%%$$$...XXXX   %%%%%%%%%%%%%%%%%%",
"%%%%%%%%%%%%%%%%%%%$$$...XXXX   %%%%%%%%%%%%%%%%%%",
"%%%%%%%%%%%%%%%%%%%$$$...XXXX   %%%%%%%%%%%%%%%%%%",
"%%%%%%%%%%%%%%%%%%%###oooXXXX   %%%%%%%%%%%%%%%%%%",
"%%%%%%%%%%%%%%%%%%%###oooXXXX   %%%%%%%%%%%%%%%%%%",
"%%%%%%%%%%%%%%%%%%%###oooXXXX   %%%%%%%%%%%%%%%%%%",
"%%%%%%%%%%%%%%%%%%%###oooOOOO   %%%%%%%%%%%%%%%%%%",
"%%%%%%%%%%%%%%%%%%%###oooOOOO   %%%%%%%%%%%%%%%%%%",
"%%%%%%%%%%%%%%%%%%%###oooOOOO   %%%%%%%%%%%%%%%%%%",
"%%%%%%%%%%%%%%%%%%%@@@OOO       %%%%%%%%%%%%%%%%%%",
"%%%%%%%%%%%%%%%%%%%@@@OOO       %%%%%%%%%%%%%%%%%%",
"%%%%%%%%%%%%%%%%%%%@@@OOO       %%%%%%%%%%%%%%%%%%",
"%%%%%%%%%%%%%%%%%%%%%%       %%%%%%%%%%%%%%%%%%%%%",
"%%%%%%%%%%%%%%%%%%%%%%       %%%%%%%%%%%%%%%%%%%%%",
"%%%%%%%%%%%%%%%%%%%%%%       %%%%%%%%%%%%%%%%%%%%%",
"%%%%%%%%%%%%%%%%%%%%%%%%%%%%%%%%%%%%%%%%%%%%%%%%%%",
"%%%%%%%%%%%%%%%%%%%%%%%%%%%%%%%%%%%%%%%%%%%%%%%%%%",
"%%%%%%%%%%%%%%%%%%%%%%%%%%%%%%%%%%%%%%%%%%%%%%%%%%",
"%%%%%%%%%%%%%%%%%%%%%%%%%%%%%%%%%%%%%%%%%%%%%%%%%%",
"%%%%%%%%%%%%%%%%%%%%%%%%%%%%%%%%%%%%%%%%%%%%%%%%%%",
"%%%%%%%%%%%%%%%%%%%%%%%%%%%%%%%%%%%%%%%%%%%%%%%%%%"
};
