/* XPM */
static char *result[] = {
/* columns rows colors chars-per-pixel */
"50 50 11 1 ",
"  c #F0B200",
". c #DEC31B",
"X c #EDD11D",
"o c #FFC92D",
"O c #FADF2E",
"+ c #FFE959",
"@ c #FFD869",
"# c #FFED79",
"$ c #FFF8CD",
"% c white",
"& c None",
/* pixels */
"&&&&&&&&&&&&&&&&&&&&&&&&&&&&&&&&&&&&&&&&&&&&&&&&&&",
"&&&&&&&&&&&&&&&&&&&&&&&&&&&&&&&&&&&&&&&&&&&&&&&&&&",
"&&&&&&&&&&&&&&&&&&&&&&&&&&&&&&&&&&&&&&&&&&&&&&&&&&",
"&&&&&&&&&&&&&&&&&&&&&&&&&&&&&&&&&&&&&&&&&&&&&&&&&&",
"&&&&&&&&&&&&&&&&&&&&&&&&&&&&&&&&&&&&&&&&&&&&&&&&&&",
"&&&&&&&&&&&&&&&&&&&&&&&&&&&&&&&&&&&&&&&&&&&&&&&&&&",
"&&&&&&&&&&&&&&&&&&&&&&&&&&&&&&&&&&&&&&&&&&&&&&&&&&",
"&&&&&&&&&&&&&&&&&&&&&&%%%%%%%&&&&&&&&&&&&&&&&&&&&&",
"&&&&&&&&&&&&&&&&&&&&&&%%%%%%%&&&&&&&&&&&&&&&&&&&&&",
"&&&&&&&&&&&&&&&&&&&&&&%%%%%%%&&&&&&&&&&&&&&&&&&&&&",
"&&&&&&&&&&&&&&&&&&&%%%%%%$$$$+++&&&&&&&&&&&&&&&&&&",
"&&&&&&&&&&&&&&&&&&&%%%%%%$$$$+++&&&&&&&&&&&&&&&&&&",
"&&&&&&&&&&&&&&&&&&&%%%%%%$$$$+++&&&&&&&&&&&&&&&&&&",
"&&&&&&&&&&&&&&&&&&&%%%%%%$$$$OOO&&&&&&&&&&&&&&&&&&",
"&&&&&&&&&&&&&&&&&&&%%%%%%$$$$OOO&&&&&&&&&&&&&&&&&&",
"&&&&&&&&&&&&&&&&&&&%%%%%%$$$$OOO&&&&&&&&&&&&&&&&&&",
"&&&&&&&&&&&&&&&&&&&%%%$$$ooooOOO&&&&&&&&&&&&&&&&&&",
"&&&&&&&&&&&&&&&&&&&%%%$$$ooooOOO&&&&&&&&&&&&&&&&&&",
"&&&&&&&&&&&&&&&&&&&%%%$$$ooooOOO&&&&&&&&&&&&&&&&&&",
"&&&&&&&&&&&&&&&&&&&%%%$$$@@@@XXX&&&&&&&&&&&&&&&&&&",
"&&&&&&&&&&&&&&&&&&&%%%$$$@@@@XXX&&&&&&&&&&&&&&&&&&",
"&&&&&&&&&&&&&&&&&&&%%%$$$@@@@XXX&&&&&&&&&&&&&&&&&&",
"&&&&&&&&&&&&&&&&&&&%%%ooo@@@@ooo&&&&&&&&&&&&&&&&&&",
"&&&&&&&&&&&&&&&&&&&%%%ooo@@@@ooo&&&&&&&&&&&&&&&&&&",
"&&&&&&&&&&&&&&&&&&&%%%ooo@@@@ooo&&&&&&&&&&&&&&&&&&",
"&&&&&&&&&&&&&&&&&&&%%%ooo....ooo&&&&&&&&&&&&&&&&&&",
"&&&&&&&&&&&&&&&&&&&%%%ooo....ooo&&&&&&&&&&&&&&&&&&",
"&&&&&&&&&&&&&&&&&&&%%%ooo....ooo&&&&&&&&&&&&&&&&&&",
"&&&&&&&&&&&&&&&&&&&%%%ooo....ooo&&&&&&&&&&&&&&&&&&",
"&&&&&&&&&&&&&&&&&&&%%%   ....   &&&&&&&&&&&&&&&&&&",
"&&&&&&&&&&&&&&&&&&&%%%   ....   &&&&&&&&&&&&&&&&&&",
"&&&&&&&&&&&&&&&&&&&%%%   ....   &&&&&&&&&&&&&&&&&&",
"&&&&&&&&&&&&&&&&&&&$$$   @@@@   &&&&&&&&&&&&&&&&&&",
"&&&&&&&&&&&&&&&&&&&$$$   @@@@   &&&&&&&&&&&&&&&&&&",
"&&&&&&&&&&&&&&&&&&&$$$   @@@@   &&&&&&&&&&&&&&&&&&",
"&&&&&&&&&&&&&&&&&&&$$$   @@@@   &&&&&&&&&&&&&&&&&&",
"&&&&&&&&&&&&&&&&&&&$$$   @@@@   &&&&&&&&&&&&&&&&&&",
"&&&&&&&&&&&&&&&&&&&$$$   @@@@   &&&&&&&&&&&&&&&&&&",
"&&&&&&&&&&&&&&&&&&&   @@@####   &&&&&&&&&&&&&&&&&&",
"&&&&&&&&&&&&&&&&&&&   @@@####   &&&&&&&&&&&&&&&&&&",
"&&&&&&&&&&&&&&&&&&&   @@@####   &&&&&&&&&&&&&&&&&&",
"&&&&&&&&&&&&&&&&&&&&&&       &&&&&&&&&&&&&&&&&&&&&",
"&&&&&&&&&&&&&&&&&&&&&&       &&&&&&&&&&&&&&&&&&&&&",
"&&&&&&&&&&&&&&&&&&&&&&       &&&&&&&&&&&&&&&&&&&&&",
"&&&&&&&&&&&&&&&&&&&&&&&&&&&&&&&&&&&&&&&&&&&&&&&&&&",
"&&&&&&&&&&&&&&&&&&&&&&&&&&&&&&&&&&&&&&&&&&&&&&&&&&",
"&&&&&&&&&&&&&&&&&&&&&&&&&&&&&&&&&&&&&&&&&&&&&&&&&&",
"&&&&&&&&&&&&&&&&&&&&&&&&&&&&&&&&&&&&&&&&&&&&&&&&&&",
"&&&&&&&&&&&&&&&&&&&&&&&&&&&&&&&&&&&&&&&&&&&&&&&&&&",
"&&&&&&&&&&&&&&&&&&&&&&&&&&&&&&&&&&&&&&&&&&&&&&&&&&"
};
