/* XPM */
static char *result[] = {
/* columns rows colors chars-per-pixel */
"50 50 10 1 ",
"  c #D1B81A",
". c #F0B200",
"X c #EDD11D",
"o c #FFC92D",
"O c #FFD869",
"+ c #FFED79",
"@ c #FFF3A8",
"# c #FFF8CD",
"$ c white",
"% c None",
/* pixels */
"%%%%%%%%%%%%%%%%%%%%%%%%%%%%%%%%%%%%%%%%%%%%%%%%%%",
"%%%%%%%%%%%%%%%%%%%%%%%%%%%%%%%%%%%%%%%%%%%%%%%%%%",
"%%%%%%%%%%%%%%%%%%%%%%%%%%%%%%%%%%%%%%%%%%%%%%%%%%",
"%%%%%%%%%%%%%%%%%%%%%%%%%%%%%%%%%%%%%%%%%%%%%%%%%%",
"%%%%%%%%%%%%%%%%%%%%%%%%%%%%%%%%%%%%%%%%%%%%%%%%%%",
"%%%%%%%%%%%%%%%%%%%%%%%%%%%%%%%%%%%%%%%%%%%%%%%%%%",
"%%%%%%%%%%%%%%%%%%%%%%%%%%%%%%%%%%%%%%%%%%%%%%%%%%",
"%%%%%%%%%%%%%%%%%%%$$$$$$$$$$###%%%%%%%%%%%%%%%%%%",
"%%%%%%%%%%%%%%%%%%%$$$$$$$$$$###%%%%%%%%%%%%%%%%%%",
"%%%%%%%%%%%%%%%%%%%$$$$$$$$$$###%%%%%%%%%%%%%%%%%%",
"%%%%%%%%%%%%%%%%%%%$$$$$$####XXX%%%%%%%%%%%%%%%%%%",
"%%%%%%%%%%%%%%%%%%%$$$$$$####XXX%%%%%%%%%%%%%%%%%%",
"%%%%%%%%%%%%%%%%%%%$$$$$$####XXX%%%%%%%%%%%%%%%%%%",
"%%%%%%%%%%%%%%%%$$$$$$###OOOO+++XXX%%%%%%%%%%%%%%%",
"%%%%%%%%%%%%%%%%$$$$$$###OOOO+++XXX%%%%%%%%%%%%%%%",
"%%%%%%%%%%%%%%%%$$$$$$###OOOO+++XXX%%%%%%%%%%%%%%%",
"%%%%%%%%%%%%%%%%$$$$$$###oooo+++XXX%%%%%%%%%%%%%%%",
"%%%%%%%%%%%%%%%%$$$$$$###oooo+++XXX%%%%%%%%%%%%%%%",
"%%%%%%%%%%%%%%%%$$$$$$###oooo+++XXX%%%%%%%%%%%%%%%",
"%%%%%%%%%%%%%%%%$$$###OOO    ###ooo%%%%%%%%%%%%%%%",
"%%%%%%%%%%%%%%%%$$$###OOO    ###ooo%%%%%%%%%%%%%%%",
"%%%%%%%%%%%%%%%%$$$###OOO    ###ooo%%%%%%%%%%%%%%%",
"%%%%%%%%%%%%%%%%$$$###OOO       ooo%%%%%%%%%%%%%%%",
"%%%%%%%%%%%%%%%%$$$###OOO       ooo%%%%%%%%%%%%%%%",
"%%%%%%%%%%%%%%%%$$$###OOO       ooo%%%%%%%%%%%%%%%",
"%%%%%%%%%%%%%%%%$$$...ooo       ...%%%%%%%%%%%%%%%",
"%%%%%%%%%%%%%%%%$$$...ooo       ...%%%%%%%%%%%%%%%",
"%%%%%%%%%%%%%%%%$$$...ooo       ...%%%%%%%%%%%%%%%",
"%%%%%%%%%%%%%%%%$$$...ooo       ...%%%%%%%%%%%%%%%",
"%%%%%%%%%%%%%%%%$$$...ooo       ...%%%%%%%%%%%%%%%",
"%%%%%%%%%%%%%%%%$$$...ooo       ...%%%%%%%%%%%%%%%",
"%%%%%%%%%%%%%%%%$$$...ooo       ...%%%%%%%%%%%%%%%",
"%%%%%%%%%%%%%%%%###...ooo    @@@...%%%%%%%%%%%%%%%",
"%%%%%%%%%%%%%%%%###...ooo    @@@...%%%%%%%%%%%%%%%",
"%%%%%%%%%%%%%%%%###...ooo    @@@...%%%%%%%%%%%%%%%",
"%%%%%%%%%%%%%%%%...oooXXX@@@@......%%%%%%%%%%%%%%%",
"%%%%%%%%%%%%%%%%...oooXXX@@@@......%%%%%%%%%%%%%%%",
"%%%%%%%%%%%%%%%%...oooXXX@@@@......%%%%%%%%%%%%%%%",
"%%%%%%%%%%%%%%%%%%%oooooo.......%%%%%%%%%%%%%%%%%%",
"%%%%%%%%%%%%%%%%%%%oooooo.......%%%%%%%%%%%%%%%%%%",
"%%%%%%%%%%%%%%%%%%%oooooo.......%%%%%%%%%%%%%%%%%%",
"%%%%%%%%%%%%%%%%%%%.............%%%%%%%%%%%%%%%%%%",
"%%%%%%%%%%%%%%%%%%%.............%%%%%%%%%%%%%%%%%%",
"%%%%%%%%%%%%%%%%%%%.............%%%%%%%%%%%%%%%%%%",
"%%%%%%%%%%%%%%%%%%%%%%%%%%%%%%%%%%%%%%%%%%%%%%%%%%",
"%%%%%%%%%%%%%%%%%%%%%%%%%%%%%%%%%%%%%%%%%%%%%%%%%%",
"%%%%%%%%%%%%%%%%%%%%%%%%%%%%%%%%%%%%%%%%%%%%%%%%%%",
"%%%%%%%%%%%%%%%%%%%%%%%%%%%%%%%%%%%%%%%%%%%%%%%%%%",
"%%%%%%%%%%%%%%%%%%%%%%%%%%%%%%%%%%%%%%%%%%%%%%%%%%",
"%%%%%%%%%%%%%%%%%%%%%%%%%%%%%%%%%%%%%%%%%%%%%%%%%%"
};
