/* XPM */
static char *result[] = {
/* columns rows colors chars-per-pixel */
"50 50 16 1 ",
"  c #DBB51B",
". c #D1B81A",
"X c #D8BE1B",
"o c #F0B200",
"O c #E3C81E",
"+ c #EDD11D",
"@ c #FFC92D",
"# c #FADF2E",
"$ c #FFE74C",
"% c #FFE959",
"& c #FFD869",
"* c #FFED79",
"= c #FFF3A8",
"- c #FFF8CD",
"; c white",
": c None",
/* pixels */
"::::::::::::::::::::::::::::::::::::::::::::::::::",
"::::::::::::::::::::::::::::::::::::::::::::::::::",
"::::::::::::::::::::::::::::::::::::::::::::::::::",
"::::::::::::::::::::::::::::::::::::::::::::::::::",
"::::::::::::::::::::::::::::::::::::::::::::::::::",
"::::::::::::::::::::::::::::::::::::::::::::::::::",
"::::::::::::::::::::::::::::::::::::::::::::::::::",
"::::::::::::::::;;;;;;-------***###:::::::::::::::",
"::::::::::::::::;;;;;;-------***###:::::::::::::::",
"::::::::::::::::;;;;;;-------***###:::::::::::::::",
":::::::::::::;;;;;;---=======---***###::::::::::::",
":::::::::::::;;;;;;---=======---***###::::::::::::",
":::::::::::::;;;;;;---=======---***###::::::::::::",
"::::::::::;;;;;;---===@@@XXXXXXX$$$===+++:::::::::",
"::::::::::;;;;;;---===@@@XXXXXXX$$$===+++:::::::::",
"::::::::::;;;;;;---===@@@XXXXXXX$$$===+++:::::::::",
":::::::;;;;;;---===@@@+++XXXXXXX   $$$++++++::::::",
":::::::;;;;;;---===@@@+++XXXXXXX   $$$++++++::::::",
":::::::;;;;;;---===@@@+++XXXXXXX   $$$++++++::::::",
":::::::;;;---===@@@+++;;;----XXX...&&&@@@+++::::::",
":::::::;;;---===@@@+++;;;----XXX...&&&@@@+++::::::",
":::::::;;;---===@@@+++;;;----XXX...&&&@@@+++::::::",
":::::::;;;---@@@+++;;;OOO----&&&...&&&@@@@@@::::::",
":::::::;;;---@@@+++;;;OOO----&&&...&&&@@@@@@::::::",
":::::::;;;---@@@+++;;;OOO----&&&...&&&@@@@@@::::::",
":::::::---===oooXXX------....@@@...===@@@@@@::::::",
":::::::---===oooXXX------....@@@...===@@@@@@::::::",
":::::::---===oooXXX------....@@@...===@@@@@@::::::",
":::::::---===oooXXX------....@@@...===@@@@@@::::::",
":::::::---%%%oooXXXXXX%%%@@@@......===&&&ooo::::::",
":::::::---%%%oooXXXXXX%%%@@@@......===&&&ooo::::::",
":::::::---%%%oooXXXXXX%%%@@@@......===&&&ooo::::::",
":::::::===%%%$$$@@@.............===&&&@@@ooo::::::",
":::::::===%%%$$$@@@.............===&&&@@@ooo::::::",
":::::::===%%%$$$@@@.............===&&&@@@ooo::::::",
"::::::::::###$$$$$$@@@.......===&&&@@@ooo:::::::::",
"::::::::::###$$$$$$@@@.......===&&&@@@ooo:::::::::",
"::::::::::###$$$$$$@@@.......===&&&@@@ooo:::::::::",
":::::::::::::###$$$$$$@@@====&&&@@@ooo::::::::::::",
":::::::::::::###$$$$$$@@@====&&&@@@ooo::::::::::::",
":::::::::::::###$$$$$$@@@====&&&@@@ooo::::::::::::",
"::::::::::::::::++++++###@@@@oooooo:::::::::::::::",
"::::::::::::::::++++++###@@@@oooooo:::::::::::::::",
"::::::::::::::::++++++###@@@@oooooo:::::::::::::::",
"::::::::::::::::::::::::::::::::::::::::::::::::::",
"::::::::::::::::::::::::::::::::::::::::::::::::::",
"::::::::::::::::::::::::::::::::::::::::::::::::::",
"::::::::::::::::::::::::::::::::::::::::::::::::::",
"::::::::::::::::::::::::::::::::::::::::::::::::::",
"::::::::::::::::::::::::::::::::::::::::::::::::::"
};
